<?xml version="1.0" encoding="utf-8"?>
<!-- Generator: Adobe Illustrator 22.0.1, SVG Export Plug-In . SVG Version: 6.00 Build 0)  -->
<svg version="1.1" xmlns="http://www.w3.org/2000/svg" xmlns:xlink="http://www.w3.org/1999/xlink" x="0px" y="0px"
	 viewBox="0 0 740 379.3" style="enable-background:new 0 0 740 379.3;" xml:space="preserve">
<style type="text/css">
	.st0{fill:#FFDBA9;stroke:#EF8D22;stroke-width:3;}
	.st1{fill:#333333;}
	.st2{fill:#CCCCCC;stroke:#5E5E5E;stroke-width:3;}
	.st3{fill:#CB555F;stroke:#C92D39;stroke-width:3;}
	.st4{fill:#FFECA9;stroke:#FCC438;stroke-width:3;}
	.st5{fill:#F7C75C;stroke:#BA9600;stroke-width:2;stroke-miterlimit:10;}
	.st6{fill:#5477E8;stroke:#3838BA;stroke-width:2;stroke-miterlimit:10;}
	.st7{fill:#F2E000;stroke:#BA9600;stroke-width:2;stroke-miterlimit:10;}
	.st8{fill:#395299;stroke:#155FAF;stroke-width:2;stroke-miterlimit:10;}
	.st9{fill:#85F27C;stroke:#65B25D;stroke-width:2;stroke-miterlimit:10;}
</style>
<g id="Capa_1" xmlns:lucid="lucid">
	<g>
		<path class="st0" d="M720,640c0,44.2-35.8,80-80,80s-80-35.8-80-80s35.8-80,80-80S720,595.8,720,640z"/>
		<g>
			<g id="a">
				<g transform="matrix(0.010850694444444444,0,0,0.010850694444444444,0,0)">
					<path id="i" class="st1" d="M605.3,631.4v-9.5h2v9.5c0,3,1.5,4.5,4.4,4.5c3,0,4.4-1.5,4.4-4.5v-9.5h2v9.5
						c0,4.1-2.1,6.1-6.5,6.1C607.5,637.5,605.3,635.5,605.3,631.4"/>
				</g>
				<g transform="matrix(0.010850694444444444,0,0,0.010850694444444444,16.16753472222222,0)">
					<path id="j" class="st1" d="M621.5,637.4V626h1.4l0.4,1.5c1.4-1,2.8-1.5,4.2-1.5c2.6,0,3.9,1.4,3.9,4.2v7.2h-2v-7.2
						c0-1.7-0.8-2.5-2.5-2.5c-1.2,0-2.2,0.5-3.3,1.4v8.3H621.5"/>
				</g>
				<g transform="matrix(0.010850694444444444,0,0,0.010850694444444444,29.242621527777775,0)">
					<path id="k" class="st1" d="M636.6,621.9v1.6h-2v-1.6H636.6z M636.6,626v11.4h-2V626H636.6"/>
				</g>
				<g transform="matrix(0.010850694444444444,0,0,0.010850694444444444,34.505208333333336,0)">
					<path id="l" class="st1" d="M647.5,628.4c-0.8-0.4-1.7-0.6-2.8-0.6c-2.3,0-3.4,1.2-3.4,3.7c0,2.9,1.2,4.3,3.4,4.3
						c1,0,2-0.1,2.8-0.4V628.4z M649.5,636.7c-1.4,0.5-3.1,0.7-5.1,0.7c-3.4,0-5.1-2-5.1-5.9c0-3.6,1.8-5.5,5.4-5.5
						c1,0,1.9,0.2,2.8,0.5v-4.7h2V636.7"/>
				</g>
				<g transform="matrix(0.010850694444444444,0,0,0.010850694444444444,47.41753472222223,0)">
					<path id="m" class="st1" d="M652.2,633.9c0-2.3,1.5-3.5,4.6-3.5c1.1,0,2.1,0.1,3,0.2v-1.1c0-1.2-1-1.9-3.1-1.9
						c-1.2,0-2.4,0.2-3.6,0.5v-1.6c1.2-0.4,2.4-0.5,3.6-0.5c3.4,0,5.1,1.2,5.1,3.6v7.7h-1l-0.8-0.8c-1,0.5-2.2,0.8-3.5,0.8
						C653.6,637.4,652.2,636.2,652.2,633.9z M656.8,632c-1.7,0-2.6,0.6-2.6,1.8c0,1.3,0.8,2,2.3,2c1.4,0,2.5-0.3,3.3-0.9v-2.7
						C659,632.1,658,632,656.8,632"/>
				</g>
				<g transform="matrix(1,0,0,1,565,565) translate(38.67730034722222 72.42838541666667)">
					<path id="l_1_" class="st1" d="M672.7,628.4c-0.8-0.4-1.7-0.6-2.8-0.6c-2.3,0-3.4,1.2-3.4,3.7c0,2.9,1.2,4.3,3.4,4.3
						c1,0,2-0.1,2.8-0.4V628.4z M674.7,636.7c-1.4,0.5-3.1,0.7-5.1,0.7c-3.4,0-5.1-2-5.1-5.9c0-3.6,1.8-5.5,5.4-5.5
						c1,0,1.9,0.2,2.8,0.5v-4.7h2V636.7"/>
				</g>
			</g>
			<g>
				<g id="b">
					<g transform="matrix(0.010850694444444444,0,0,0.010850694444444444,0,0)">
						<path id="n" class="st1" d="M593.4,657.7v-1.8c1.6,0.6,3.4,0.9,5.3,0.9c2.7,0,4-1,4-2.9c0-1.7-1-2.5-3-2.5h-2.2
							c-3.2,0-4.9-1.4-4.9-4.2c0-3,2.1-4.4,6.2-4.4c1.8,0,3.5,0.2,5,0.7v1.8c-1.6-0.6-3.2-0.9-5-0.9c-2.8,0-4.2,0.9-4.2,2.8
							c0,1.7,1,2.5,2.9,2.5h2.2c3.3,0,5,1.4,5,4.2c0,3-2,4.6-6,4.6C596.8,658.4,595,658.2,593.4,657.7"/>
					</g>
					<g transform="matrix(0.010850694444444444,0,0,0.010850694444444444,14.214409722222221,0)">
						<path id="o" class="st1" d="M616.5,653.2h-7.7c0,2.3,1.5,3.5,4.4,3.5c1,0,2-0.1,3-0.3v1.6c-1,0.2-2.2,0.3-3.7,0.3
							c-3.8,0-5.8-1.9-5.8-5.8c0-3.7,1.8-5.6,5.5-5.6C615.8,646.9,617.2,649,616.5,653.2z M608.8,651.5h5.8c0.1-2-0.8-3-2.7-3
							C610,648.5,609,649.5,608.8,651.5"/>
					</g>
					<g transform="matrix(0.010850694444444444,0,0,0.010850694444444444,26.497395833333332,0)">
						<path id="p" class="st1" d="M628.3,658c-0.9,0.2-2,0.3-3,0.3c-4.1,0-6.2-2-6.2-5.9c0-3.7,2.1-5.5,6.2-5.5c1.1,0,2.1,0.1,3,0.3
							v1.6c-0.9-0.2-1.9-0.3-2.8-0.3c-2.9,0-4.4,1.3-4.4,3.9c0,2.9,1.5,4.3,4.4,4.3c0.9,0,1.9-0.1,2.8-0.3V658"/>
					</g>
					<g transform="matrix(0.010850694444444444,0,0,0.010850694444444444,37.619357638888886,0)">
						<path id="q" class="st1" d="M630.8,658.3v-11.4h1.4l0.4,1.5c1-1,2.2-1.5,3.6-1.5v1.7c-1.4,0-2.5,0.5-3.3,1.4v8.3H630.8"/>
					</g>
					<g transform="matrix(0.010850694444444444,0,0,0.010850694444444444,44.943576388888886,0)">
						<path id="o_1_" class="st1" d="M647.2,653.2h-7.7c0,2.3,1.5,3.5,4.4,3.5c1,0,2-0.1,3-0.3v1.6c-1,0.2-2.2,0.3-3.7,0.3
							c-3.8,0-5.8-1.9-5.8-5.8c0-3.7,1.8-5.6,5.5-5.6C646.5,646.9,647.9,649,647.2,653.2z M639.6,651.5h5.8c0.1-2-0.8-3-2.7-3
							C640.7,648.5,639.7,649.5,639.6,651.5"/>
					</g>
					<g transform="matrix(0.010850694444444444,0,0,0.010850694444444444,57.2265625,0)">
						<path id="r" class="st1" d="M650.4,645h1.3l0.4,1.8h2.6v1.6h-2.3v6.5c0,1.1,0.5,1.6,1.4,1.6h1v1.6h-1.5c-1.9,0-2.9-1-2.9-3.1
							V645"/>
					</g>
					<g transform="matrix(0.010850694444444444,0,0,0.010850694444444444,64.27951388888889,0)">
						<path id="s" class="st1" d="M662.3,656.7c2.3,0,3.4-1.4,3.4-4.1c0-2.7-1.1-4-3.4-4s-3.4,1.3-3.4,4
							C658.9,655.3,660,656.7,662.3,656.7z M656.9,652.6c0-3.8,1.8-5.7,5.4-5.7s5.4,1.9,5.4,5.7c0,3.8-1.8,5.7-5.4,5.7
							C658.7,658.3,656.9,656.4,656.9,652.6"/>
					</g>
					<g transform="matrix(0.010850694444444444,0,0,0.010850694444444444,77.30034722222221,0)">
						<path id="q_1_" class="st1" d="M670.5,658.3v-11.4h1.4l0.4,1.5c1-1,2.2-1.5,3.6-1.5v1.7c-1.4,0-2.5,0.5-3.3,1.4v8.3H670.5"/>
					</g>
					<g transform="matrix(1,0,0,1,565,565) translate(26.52994791666667 93.2834201388889)">
						<path id="m_1_" class="st1" d="M677.2,654.7c0-2.3,1.5-3.5,4.6-3.5c1.1,0,2.1,0.1,3,0.2v-1.1c0-1.2-1-1.9-3.1-1.9
							c-1.2,0-2.4,0.2-3.6,0.5v-1.6c1.2-0.4,2.4-0.5,3.6-0.5c3.4,0,5.1,1.2,5.1,3.6v7.7h-1l-0.8-0.8c-1,0.5-2.2,0.8-3.5,0.8
							C678.7,658.3,677.2,657.1,677.2,654.7z M681.9,652.9c-1.7,0-2.6,0.6-2.6,1.8c0,1.3,0.8,2,2.3,2c1.4,0,2.5-0.3,3.3-0.9v-2.7
							C684,652.9,683,652.9,681.9,652.9"/>
					</g>
				</g>
				<path class="st2" d="M1000,640c0,44.2-35.8,80-80,80s-80-35.8-80-80s35.8-80,80-80S1000,595.8,1000,640z"/>
				<g>
					<g id="c">
						<g transform="matrix(0.010850694444444444,0,0,0.010850694444444444,0,0)">
							<path id="t" class="st1" d="M884.4,636.9c-1.3,0.4-2.8,0.7-4.3,0.7c-5.4,0-8.1-2.7-8.1-8.1c0-5.1,2.7-7.6,8.1-7.6
								c1.6,0,3,0.2,4.3,0.7v1.7c-1.3-0.5-2.7-0.8-4.1-0.8c-4.2,0-6.3,2-6.3,6c0,4.3,2.1,6.5,6.3,6.5c1.4,0,2.8-0.2,4.1-0.8V636.9"
								/>
						</g>
						<g transform="matrix(0.010850694444444444,0,0,0.010850694444444444,15.028211805555555,0)">
							<path id="s_1_" class="st1" d="M892.4,635.8c2.3,0,3.4-1.4,3.4-4.1c0-2.7-1.1-4-3.4-4s-3.4,1.3-3.4,4
								C889,634.4,890.1,635.8,892.4,635.8z M887,631.7c0-3.8,1.8-5.7,5.4-5.7s5.4,1.9,5.4,5.7c0,3.8-1.8,5.7-5.4,5.7
								C888.8,637.4,887,635.5,887,631.7"/>
						</g>
						<g transform="matrix(0.010850694444444444,0,0,0.010850694444444444,28.04904513888889,0)">
							<path id="j_1_" class="st1" d="M900.5,637.4V626h1.4l0.4,1.5c1.4-1,2.8-1.5,4.2-1.5c2.6,0,3.9,1.4,3.9,4.2v7.2h-2v-7.2
								c0-1.7-0.8-2.5-2.5-2.5c-1.2,0-2.2,0.5-3.3,1.4v8.3H900.5"/>
						</g>
						<g transform="matrix(0.010850694444444444,0,0,0.010850694444444444,41.12413194444444,0)">
							<path id="l_2_" class="st1" d="M921.2,628.4c-0.8-0.4-1.7-0.6-2.8-0.6c-2.3,0-3.4,1.2-3.4,3.7c0,2.9,1.2,4.3,3.4,4.3
								c1,0,2-0.1,2.8-0.4V628.4z M923.3,636.7c-1.4,0.5-3.1,0.7-5.1,0.7c-3.4,0-5.1-2-5.1-5.9c0-3.6,1.8-5.5,5.4-5.5
								c1,0,1.9,0.2,2.8,0.5v-4.7h2V636.7"/>
						</g>
						<g transform="matrix(0.010850694444444444,0,0,0.010850694444444444,54.03645833333333,0)">
							<path id="u" class="st1" d="M936.3,626v11.4H935l-0.3-1.5c-1.4,1-2.8,1.5-4.2,1.5c-2.6,0-3.9-1.4-3.9-4.2V626h2v7.2
								c0,1.7,0.8,2.5,2.5,2.5c1.2,0,2.2-0.5,3.3-1.4V626H936.3"/>
						</g>
						<g transform="matrix(0.010850694444444444,0,0,0.010850694444444444,67.11154513888889,0)">
							<path id="p_1_" class="st1" d="M948.3,637.1c-0.9,0.2-2,0.3-3,0.3c-4.1,0-6.2-2-6.2-5.9c0-3.7,2.1-5.5,6.2-5.5
								c1.1,0,2.1,0.1,3,0.3v1.6c-0.9-0.2-1.9-0.3-2.8-0.3c-2.9,0-4.4,1.3-4.4,3.9c0,2.9,1.5,4.3,4.4,4.3c0.9,0,1.9-0.1,2.8-0.3
								V637.1"/>
						</g>
						<g transform="matrix(0.010850694444444444,0,0,0.010850694444444444,78.23350694444444,0)">
							<path id="r_1_" class="st1" d="M950.7,624.2h1.3l0.4,1.8h2.6v1.6h-2.3v6.5c0,1.1,0.5,1.6,1.4,1.6h1v1.6h-1.5
								c-1.9,0-2.9-1-2.9-3.1V624.2"/>
						</g>
						<g transform="matrix(1,0,0,1,845,565) translate(25.84635416666667 72.42838541666667)">
							<path id="s_2_" class="st1" d="M962.6,635.8c2.3,0,3.4-1.4,3.4-4.1c0-2.7-1.1-4-3.4-4s-3.4,1.3-3.4,4
								C959.2,634.4,960.4,635.8,962.6,635.8z M957.2,631.7c0-3.8,1.8-5.7,5.4-5.7s5.4,1.9,5.4,5.7c0,3.8-1.8,5.7-5.4,5.7
								C959,637.4,957.2,635.5,957.2,631.7"/>
						</g>
					</g>
					<g>
						<g id="d">
							<g transform="matrix(0.010850694444444444,0,0,0.010850694444444444,0,0)">
								<path id="v" class="st1" d="M890,642.8v1.6h-8.1v5.2h7.8v1.6h-7.8v5.4h8.3v1.6h-10.3v-15.5H890"/>
							</g>
							<g transform="matrix(0.010850694444444444,0,0,0.010850694444444444,13.292100694444445,0)">
								<path id="w" class="st1" d="M891.8,646.9h2.3l8.5,11.4h-2.3L891.8,646.9z M894.1,658.3h-2.3l8.5-11.4h2.3"/>
							</g>
							<g transform="matrix(0.010850694444444444,0,0,0.010850694444444444,25.44487847222222,0)">
								<path id="p_2_" class="st1" d="M914,658c-0.9,0.2-2,0.3-3,0.3c-4.1,0-6.2-2-6.2-5.9c0-3.7,2.1-5.5,6.2-5.5
									c1.1,0,2.1,0.1,3,0.3v1.6c-0.9-0.2-1.9-0.3-2.8-0.3c-2.9,0-4.4,1.3-4.4,3.9c0,2.9,1.5,4.3,4.4,4.3c0.9,0,1.9-0.1,2.8-0.3
									V658"/>
							</g>
							<g transform="matrix(0.010850694444444444,0,0,0.010850694444444444,36.56684027777778,0)">
								<path id="q_2_" class="st1" d="M916.4,658.3v-11.4h1.4l0.4,1.5c1-1,2.2-1.5,3.6-1.5v1.7c-1.4,0-2.5,0.5-3.3,1.4v8.3H916.4"
									/>
							</g>
							<g transform="matrix(0.010850694444444444,0,0,0.010850694444444444,43.89105902777778,0)">
								<path id="o_2_" class="st1" d="M932.9,653.2h-7.7c0,2.3,1.5,3.5,4.4,3.5c1,0,2-0.1,3-0.3v1.6c-1,0.2-2.2,0.3-3.7,0.3
									c-3.8,0-5.8-1.9-5.8-5.8c0-3.7,1.8-5.6,5.5-5.6C932.1,646.9,933.5,649,932.9,653.2z M925.2,651.5h5.8c0.1-2-0.8-3-2.7-3
									C926.4,648.5,925.3,649.5,925.2,651.5"/>
							</g>
							<g transform="matrix(0.010850694444444444,0,0,0.010850694444444444,56.174045138888886,0)">
								<path id="r_2_" class="st1" d="M936,645h1.3l0.4,1.8h2.6v1.6H938v6.5c0,1.1,0.5,1.6,1.4,1.6h1v1.6h-1.5
									c-1.9,0-2.9-1-2.9-3.1V645"/>
							</g>
							<g transform="matrix(0.010850694444444444,0,0,0.010850694444444444,63.22699652777778,0)">
								<path id="s_3_" class="st1" d="M948,656.7c2.3,0,3.4-1.4,3.4-4.1c0-2.7-1.1-4-3.4-4c-2.3,0-3.4,1.3-3.4,4
									C944.5,655.3,945.7,656.7,948,656.7z M942.5,652.6c0-3.8,1.8-5.7,5.4-5.7s5.4,1.9,5.4,5.7c0,3.8-1.8,5.7-5.4,5.7
									C944.3,658.3,942.5,656.4,942.5,652.6"/>
							</g>
							<g transform="matrix(1,0,0,1,845,565) translate(33.21397569444445 93.2834201388889)">
								<path id="q_3_" class="st1" d="M956.1,658.3v-11.4h1.4l0.4,1.5c1-1,2.2-1.5,3.6-1.5v1.7c-1.4,0-2.5,0.5-3.3,1.4v8.3H956.1"
									/>
							</g>
						</g>
						<path class="st3" d="M740,636c0-3.3,2.7-6,6-6h18c3.3,0,6-2.7,6-6v-18c0-3.3,2.7-6,6-6h8c3.3,0,6,2.7,6,6v18c0,3.3,2.7,6,6,6
							h18c3.3,0,6,2.7,6,6v8c0,3.3-2.7,6-6,6h-18c-3.3,0-6,2.7-6,6v18c0,3.3-2.7,6-6,6h-8c-3.3,0-6-2.7-6-6v-18c0-3.3-2.7-6-6-6h-18
							c-3.3,0-6-2.7-6-6V636z M1019.5,616.7c0-3.3,2.7-6,6-6h48.6c3.3,0,6,2.7,6,6v8c0,3.3-2.7,6-6,6h-48.6c-3.3,0-6-2.7-6-6
							L1019.5,616.7z M1019.5,657.4c0-3.3,2.7-6,6-6h48.6c3.3,0,6,2.7,6,6v8c0,3.3-2.7,6-6,6h-48.6c-3.3,0-6-2.7-6-6L1019.5,657.4z"
							/>
						<path class="st4" d="M1260,640c0,44.2-35.8,80-80,80s-80-35.8-80-80s35.8-80,80-80S1260,595.8,1260,640z"/>
						<g>
							<g>
								<g id="e">
									<g transform="matrix(0.010850694444444444,0,0,0.010850694444444444,0,0)">
										<path id="x" class="st1" d="M1124.1,626.9v-15.5h6.6c3,0,4.4,1.2,4.4,3.7c0,2.8-2.1,4.5-6.2,5.2l-0.4-1.7
											c3-0.5,4.4-1.6,4.4-3.4c0-1.4-0.8-2.1-2.5-2.1h-4.4v13.9H1124.1"/>
									</g>
									<g transform="matrix(0.010850694444444444,0,0,0.010850694444444444,13.487413194444445,0)">
										<path id="m_2_" class="st1" d="M1137,623.3c0-2.3,1.5-3.5,4.6-3.5c1.1,0,2.1,0.1,3,0.2V619c0-1.2-1-1.9-3.1-1.9
											c-1.2,0-2.4,0.2-3.6,0.5V616c1.2-0.4,2.4-0.5,3.6-0.5c3.4,0,5.1,1.2,5.1,3.6v7.7h-1l-0.8-0.8c-1,0.5-2.2,0.8-3.5,0.8
											C1138.5,626.9,1137,625.7,1137,623.3z M1141.6,621.4c-1.7,0-2.6,0.6-2.6,1.8c0,1.3,0.8,2,2.3,2c1.4,0,2.5-0.3,3.3-0.9
											v-2.7C1143.8,621.5,1142.8,621.4,1141.6,621.4"/>
									</g>
									<g transform="matrix(0.010850694444444444,0,0,0.010850694444444444,25.80295138888889,0)">
										<path id="q_4_" class="st1" d="M1149.9,626.9v-11.4h1.4l0.4,1.5c1-1,2.2-1.5,3.6-1.5v1.7c-1.4,0-2.5,0.5-3.3,1.4v8.3
											H1149.9"/>
									</g>
									<g transform="matrix(0.010850694444444444,0,0,0.010850694444444444,33.127170138888886,0)">
										<path id="o_3_" class="st1" d="M1166.3,621.7h-7.7c0,2.3,1.5,3.5,4.4,3.5c1,0,2-0.1,3-0.3v1.6c-1,0.2-2.2,0.3-3.7,0.3
											c-3.8,0-5.8-1.9-5.8-5.8c0-3.7,1.8-5.6,5.5-5.6C1165.6,615.5,1167,617.6,1166.3,621.7z M1158.7,620.1h5.8
											c0.1-2-0.8-3-2.7-3C1159.8,617.1,1158.8,618.1,1158.7,620.1"/>
									</g>
									<g transform="matrix(0.010850694444444444,0,0,0.010850694444444444,45.41015625,0)">
										<path id="j_2_" class="st1" d="M1169.5,626.9v-11.4h1.4l0.4,1.5c1.4-1,2.8-1.5,4.2-1.5c2.6,0,3.9,1.4,3.9,4.2v7.2h-2v-7.2
											c0-1.7-0.8-2.5-2.5-2.5c-1.2,0-2.2,0.5-3.3,1.4v8.3H1169.5"/>
									</g>
									<g transform="matrix(0.010850694444444444,0,0,0.010850694444444444,58.48524305555555,0)">
										<path id="y" class="st1" d="M1190.2,617.4c-0.7-0.2-1.5-0.3-2.5-0.3c-2.4,0-3.6,1.3-3.6,3.9c0,2.7,1.2,4,3.4,4
											c1,0,2-0.2,2.7-0.6V617.4z M1192.2,631h-2v-4.7c-0.9,0.4-1.8,0.5-2.8,0.5c-3.6,0-5.4-1.9-5.4-5.8c0-3.8,1.9-5.6,5.7-5.6
											c1.5,0,3,0.2,4.5,0.5V631"/>
									</g>
									<g transform="matrix(0.010850694444444444,0,0,0.010850694444444444,71.36501736111111,0)">
										<path id="u_1_" class="st1" d="M1205.3,615.5v11.4h-1.4l-0.3-1.5c-1.4,1-2.8,1.5-4.2,1.5c-2.6,0-3.9-1.4-3.9-4.2v-7.2h2
											v7.2c0,1.7,0.8,2.5,2.5,2.5c1.2,0,2.2-0.5,3.3-1.4v-8.3H1205.3"/>
									</g>
									<g transform="matrix(0.010850694444444444,0,0,0.010850694444444444,84.44010416666667,0)">
										<path id="k_1_" class="st1" d="M1210.5,611.3v1.6h-2v-1.6H1210.5z M1210.5,615.5v11.4h-2v-11.4H1210.5"/>
									</g>
									<g transform="matrix(0.010850694444444444,0,0,0.010850694444444444,89.70269097222221,0)">
										<path id="j_3_" class="st1" d="M1213.8,626.9v-11.4h1.4l0.4,1.5c1.4-1,2.8-1.5,4.2-1.5c2.6,0,3.9,1.4,3.9,4.2v7.2h-2v-7.2
											c0-1.7-0.8-2.5-2.5-2.5c-1.2,0-2.2,0.5-3.3,1.4v8.3H1213.8"/>
									</g>
									<g transform="matrix(1,0,0,1,1113,573) translate(9.453342013888886 53.86588541666667)">
										<path id="m_3_" class="st1" d="M1226.3,623.3c0-2.3,1.5-3.5,4.6-3.5c1.1,0,2.1,0.1,3,0.2V619c0-1.2-1-1.9-3.1-1.9
											c-1.2,0-2.4,0.2-3.6,0.5V616c1.2-0.4,2.4-0.5,3.6-0.5c3.4,0,5.1,1.2,5.1,3.6v7.7h-1l-0.8-0.8c-1,0.5-2.2,0.8-3.5,0.8
											C1227.7,626.9,1226.3,625.7,1226.3,623.3z M1230.9,621.4c-1.7,0-2.6,0.6-2.6,1.8c0,1.3,0.8,2,2.3,2c1.4,0,2.5-0.3,3.3-0.9
											v-2.7C1233.1,621.5,1232.1,621.4,1230.9,621.4"/>
									</g>
								</g>
								<g>
									<g id="f">
										<g transform="matrix(0.010850694444444444,0,0,0.010850694444444444,0,0)">
											<path id="l_3_" class="st1" d="M1124.8,638.6c-0.8-0.4-1.7-0.6-2.8-0.6c-2.3,0-3.4,1.2-3.4,3.7c0,2.9,1.2,4.3,3.4,4.3
												c1,0,2-0.1,2.8-0.4V638.6z M1126.8,647c-1.4,0.5-3.1,0.7-5.1,0.7c-3.4,0-5.1-2-5.1-5.9c0-3.6,1.8-5.5,5.4-5.5
												c1,0,1.9,0.2,2.8,0.5v-4.7h2V647"/>
										</g>
										<g transform="matrix(1,0,0,1,1113,573) translate(2.5251736111111143 74.72092013888889)">
											<path id="o_4_" class="st1" d="M1139.2,642.6h-7.7c0,2.3,1.5,3.5,4.4,3.5c1,0,2-0.1,3-0.3v1.6c-1,0.2-2.2,0.3-3.7,0.3
												c-3.8,0-5.8-1.9-5.8-5.8c0-3.7,1.8-5.6,5.5-5.6C1138.5,636.3,1139.9,638.4,1139.2,642.6z M1131.5,640.9h5.8
												c0.1-2-0.8-3-2.7-3C1132.7,637.9,1131.7,638.9,1131.5,640.9"/>
										</g>
									</g>
									<g transform="translate(-540 -540)" lucid:page-tab-id="0_0">
										<g id="g">
											<g transform="matrix(0.010850694444444444,0,0,0.010850694444444444,0,0)">
												<path id="z" class="st1" d="M1155.2,638.3c-0.7-0.2-1.5-0.3-2.5-0.3c-2.4,0-3.6,1.3-3.6,3.9c0,2.7,1.2,4,3.4,4
													c1,0,2-0.2,2.7-0.6V638.3z M1157.2,647.7c0,2.7-1.7,4.1-5.2,4.1c-1.4,0-2.6-0.2-3.7-0.5v-1.6c1.1,0.4,2.4,0.5,3.8,0.5
													c2.4,0,3.4-0.9,3.2-3c-0.9,0.4-1.8,0.5-2.8,0.5c-3.6,0-5.4-1.9-5.4-5.8c0-3.8,1.9-5.6,5.7-5.6c1.5,0,3,0.2,4.5,0.5
													V647.7"/>
											</g>
											<g transform="matrix(0.010850694444444444,0,0,0.010850694444444444,12.879774305555555,0)">
												<path id="A" class="st1" d="M1162.5,632.2v15.5h-2v-15.5H1162.5"/>
											</g>
											<g transform="matrix(0.010850694444444444,0,0,0.010850694444444444,18.14236111111111,0)">
												<path id="B" class="st1" d="M1165.2,644.2c0-2.3,1.5-3.5,4.6-3.5c1.1,0,2.1,0.1,3,0.2v-1.1c0-1.2-1-1.9-3.1-1.9
													c-1.2,0-2.4,0.2-3.6,0.5v-1.6c1.2-0.4,2.4-0.5,3.6-0.5c3.4,0,5.1,1.2,5.1,3.6v7.7h-1l-0.8-0.8c-1,0.5-2.2,0.8-3.5,0.8
													C1166.6,647.7,1165.2,646.5,1165.2,644.2z M1169.8,642.3c-1.7,0-2.6,0.6-2.6,1.8c0,1.3,0.8,2,2.3,2
													c1.4,0,2.5-0.3,3.3-0.9v-2.7C1172,642.4,1171,642.3,1169.8,642.3z M1172.4,631.4v1.6l-4.3,1.6V633"/>
											</g>
											<g transform="matrix(0.010850694444444444,0,0,0.010850694444444444,30.45789930555556,0)">
												<path id="j_4_" class="st1" d="M1178.1,647.7v-11.4h1.4l0.4,1.5c1.4-1,2.8-1.5,4.2-1.5c2.6,0,3.9,1.4,3.9,4.2v7.2h-2
													v-7.2c0-1.7-0.8-2.5-2.5-2.5c-1.2,0-2.2,0.5-3.3,1.4v8.3H1178.1"/>
											</g>
											<g transform="matrix(0.010850694444444444,0,0,0.010850694444444444,43.532986111111114,0)">
												<path id="l_4_" class="st1" d="M1198.8,638.6c-0.8-0.4-1.7-0.6-2.8-0.6c-2.3,0-3.4,1.2-3.4,3.7c0,2.9,1.2,4.3,3.4,4.3
													c1,0,2-0.1,2.8-0.4V638.6z M1200.8,647c-1.4,0.5-3.1,0.7-5.1,0.7c-3.4,0-5.1-2-5.1-5.9c0-3.6,1.8-5.5,5.4-5.5
													c1,0,1.9,0.2,2.8,0.5v-4.7h2V647"/>
											</g>
											<g transform="matrix(0.010850694444444444,0,0,0.010850694444444444,56.4453125,0)">
												<path id="u_2_" class="st1" d="M1213.9,636.3v11.4h-1.4l-0.3-1.5c-1.4,1-2.8,1.5-4.2,1.5c-2.6,0-3.9-1.4-3.9-4.2v-7.2h2
													v7.2c0,1.7,0.8,2.5,2.5,2.5c1.2,0,2.2-0.5,3.3-1.4v-8.3H1213.9"/>
											</g>
											<g transform="matrix(0.010850694444444444,0,0,0.010850694444444444,69.52039930555556,0)">
												<path id="A_1_" class="st1" d="M1219.1,632.2v15.5h-2v-15.5H1219.1"/>
											</g>
											<g transform="matrix(0.010850694444444444,0,0,0.010850694444444444,74.78298611111111,0)">
												<path id="m_4_" class="st1" d="M1221.9,644.2c0-2.3,1.5-3.5,4.6-3.5c1.1,0,2.1,0.1,3,0.2v-1.1c0-1.2-1-1.9-3.1-1.9
													c-1.2,0-2.4,0.2-3.6,0.5v-1.6c1.2-0.4,2.4-0.5,3.6-0.5c3.4,0,5.1,1.2,5.1,3.6v7.7h-1l-0.8-0.8c-1,0.5-2.2,0.8-3.5,0.8
													C1223.3,647.7,1221.9,646.5,1221.9,644.2z M1226.5,642.3c-1.7,0-2.6,0.6-2.6,1.8c0,1.3,0.8,2,2.3,2
													c1.4,0,2.5-0.3,3.3-0.9v-2.7C1228.7,642.4,1227.7,642.3,1226.5,642.3"/>
											</g>
											<g transform="matrix(1,0,0,1,1113,573) translate(32.98307291666667 74.72092013888889)">
												<path id="C" class="st1" d="M1234.7,647.2v-1.7c1.3,0.4,2.6,0.7,3.9,0.7c1.8,0,2.7-0.5,2.7-1.6c0-1-0.6-1.5-1.8-1.5
													h-1.8c-2.4,0-3.6-1.1-3.6-3.4c0-2.2,1.6-3.3,4.7-3.3c1.4,0,2.7,0.2,3.9,0.5v1.7c-1.3-0.4-2.6-0.7-3.9-0.7
													c-1.9,0-2.8,0.5-2.8,1.6c0,1,0.6,1.5,1.7,1.5h1.8c2.5,0,3.8,1.1,3.8,3.4c0,2.2-1.6,3.3-4.7,3.3
													C1237.3,647.7,1236,647.5,1234.7,647.2"/>
											</g>
										</g>
										<g>
											<g id="h">
												<g transform="matrix(0.010850694444444444,0,0,0.010850694444444444,0,0)">
													<path id="o_5_" class="st1" d="M1141.8,663.5h-7.7c0,2.3,1.5,3.5,4.4,3.5c1,0,2-0.1,3-0.3v1.6c-1,0.2-2.2,0.3-3.7,0.3
														c-3.8,0-5.8-1.9-5.8-5.8c0-3.7,1.8-5.6,5.5-5.6C1141.1,657.2,1142.5,659.3,1141.8,663.5z M1134.1,661.8h5.8
														c0.1-2-0.8-3-2.7-3C1135.3,658.8,1134.2,659.8,1134.1,661.8"/>
												</g>
												<g transform="matrix(0.010850694444444444,0,0,0.010850694444444444,12.28298611111111,0)">
													<path id="w_1_" class="st1" d="M1143.6,657.2h2.3l8.5,11.4h-2.3L1143.6,657.2z M1145.9,668.6h-2.3l8.5-11.4h2.3"/>
												</g>
												<g transform="matrix(0.010850694444444444,0,0,0.010850694444444444,24.43576388888889,0)">
													<path id="s_4_" class="st1" d="M1162,666.9c2.3,0,3.4-1.4,3.4-4.1c0-2.7-1.1-4-3.4-4s-3.4,1.3-3.4,4
														C1158.6,665.6,1159.7,666.9,1162,666.9z M1156.5,662.9c0-3.8,1.8-5.7,5.4-5.7s5.4,1.9,5.4,5.7c0,3.8-1.8,5.7-5.4,5.7
														C1158.4,668.6,1156.5,666.7,1156.5,662.9"/>
												</g>
												<g transform="matrix(0.010850694444444444,0,0,0.010850694444444444,37.456597222222214,0)">
													<path id="p_3_" class="st1" d="M1178.8,668.3c-0.9,0.2-2,0.3-3,0.3c-4.1,0-6.2-2-6.2-5.9c0-3.7,2.1-5.5,6.2-5.5
														c1.1,0,2.1,0.1,3,0.3v1.6c-0.9-0.2-1.9-0.3-2.8-0.3c-2.9,0-4.4,1.3-4.4,3.9c0,2.9,1.5,4.3,4.4,4.3
														c0.9,0,1.9-0.1,2.8-0.3V668.3"/>
												</g>
												<g transform="matrix(0.010850694444444444,0,0,0.010850694444444444,48.57855902777778,0)">
													<path id="q_5_" class="st1" d="M1181.2,668.6v-11.4h1.4l0.4,1.5c1-1,2.2-1.5,3.6-1.5v1.7c-1.4,0-2.5,0.5-3.3,1.4v8.3
														H1181.2"/>
												</g>
												<g transform="matrix(0.010850694444444444,0,0,0.010850694444444444,55.90277777777778,0)">
													<path id="k_2_" class="st1" d="M1190.6,653.1v1.6h-2v-1.6H1190.6z M1190.6,657.2v11.4h-2v-11.4H1190.6"/>
												</g>
												<g transform="matrix(0.010850694444444444,0,0,0.010850694444444444,61.16536458333333,0)">
													<path id="j_5_" class="st1" d="M1193.8,668.6v-11.4h1.4l0.4,1.5c1.4-1,2.8-1.5,4.2-1.5c2.6,0,3.9,1.4,3.9,4.2v7.2h-2
														v-7.2c0-1.7-0.8-2.5-2.5-2.5c-1.2,0-2.2,0.5-3.3,1.4v8.3H1193.8"/>
												</g>
												<g transform="matrix(0.010850694444444444,0,0,0.010850694444444444,74.24045138888889,0)">
													<path id="m_5_" class="st1" d="M1206.4,665c0-2.3,1.5-3.5,4.6-3.5c1.1,0,2.1,0.1,3,0.2v-1.1c0-1.2-1-1.9-3.1-1.9
														c-1.2,0-2.4,0.2-3.6,0.5v-1.6c1.2-0.4,2.4-0.5,3.6-0.5c3.4,0,5.1,1.2,5.1,3.6v7.7h-1l-0.8-0.8c-1,0.5-2.2,0.8-3.5,0.8
														C1207.8,668.6,1206.4,667.4,1206.4,665z M1211,663.2c-1.7,0-2.6,0.6-2.6,1.8c0,1.3,0.8,2,2.3,2c1.4,0,2.5-0.3,3.3-0.9
														v-2.7C1213.2,663.2,1212.2,663.2,1211,663.2"/>
												</g>
												<g transform="matrix(1,0,0,1,1113,573) translate(18.025390625 95.57595486111111)">
													<path id="C_1_" class="st1" d="M1219.2,668v-1.7c1.3,0.4,2.6,0.7,3.9,0.7c1.8,0,2.7-0.5,2.7-1.6c0-1-0.6-1.5-1.8-1.5
														h-1.8c-2.4,0-3.6-1.1-3.6-3.4c0-2.2,1.6-3.3,4.7-3.3c1.4,0,2.7,0.2,3.9,0.5v1.7c-1.3-0.4-2.6-0.7-3.9-0.7
														c-1.9,0-2.8,0.5-2.8,1.6c0,1,0.6,1.5,1.7,1.5h1.8c2.5,0,3.8,1.1,3.8,3.4c0,2.2-1.6,3.3-4.7,3.3
														C1221.8,668.6,1220.5,668.4,1219.2,668"/>
												</g>
											</g>
										</g>
									</g>
								</g>
							</g>
						</g>
					</g>
				</g>
			</g>
		</g>
	</g>
</g>
<g id="Capa_2">
	<g>
		<g>
			<path class="st5" d="M104.5,269c1.2,1.4,2.3,2.9,3.5,4.3c4.1,4.8,8.8,8.9,13.7,12.7c3.2,2.5,6.5,5.1,9.6,7.7
				c2.2,1.9,4,4.1,5.2,6.7c2.4,5.3,2.6,10.6,0.2,15.9c-2.2,4.9-6,8.2-10.9,10.2c-4,1.7-8.2,2.3-12.5,1.4c-5.9-1.2-10.3-4.4-13.1-9.7
				c-2.2-4.2-2.8-8.6-1.9-13.2c0.7-3.7,1.6-7.3,2.6-10.9c2.2-8.1,3.7-16.4,3.5-24.8C104.4,269.2,104.4,269.1,104.5,269z"/>
			<circle class="st6" cx="118.5" cy="309.9" r="9"/>
		</g>
		<g>
			<path class="st7" d="M107.9,265.9c1.7,0.8,3.3,1.6,5,2.3c5.8,2.5,11.8,4.1,17.9,5.4c4,0.8,8.1,1.7,12,2.7
				c2.8,0.7,5.4,1.9,7.6,3.8c4.5,3.7,7,8.4,7.2,14.2c0.2,5.4-1.8,10-5.3,14c-2.9,3.3-6.4,5.6-10.6,6.8c-5.8,1.5-11.2,0.6-16.1-2.9
				c-3.9-2.8-6.3-6.5-7.5-11.1c-1-3.6-1.8-7.3-2.5-11c-1.6-8.3-3.9-16.3-7.8-23.8C108,266.1,107.9,266,107.9,265.9z"/>
			<circle class="st6" cx="138.5" cy="296.5" r="9"/>
		</g>
		<g>
			<path class="st5" d="M109.7,259.2c1.9-0.1,3.7-0.2,5.5-0.3c6.3-0.5,12.3-2,18.3-3.7c4-1.2,7.9-2.3,11.9-3.3
				c2.8-0.7,5.7-0.9,8.5-0.3c5.7,1.1,10.1,4.1,13,9.2c2.7,4.6,3.1,9.6,1.9,14.8c-1,4.2-2.9,8-6.1,11c-4.4,4.1-9.6,5.8-15.6,5
				c-4.7-0.6-8.6-2.8-11.8-6.2c-2.6-2.7-5-5.6-7.4-8.5c-5.3-6.5-11.1-12.5-18.1-17.4C109.8,259.4,109.8,259.3,109.7,259.2z"/>
			<circle class="st6" cx="151.1" cy="271.8" r="9"/>
		</g>
		<g>
			<path class="st7" d="M110.1,251.3c1.7-0.7,3.5-1.3,5.2-1.9c5.8-2.3,11.2-5.4,16.5-8.9c3.4-2.3,6.9-4.5,10.4-6.6
				c2.5-1.5,5.2-2.5,8.1-2.8c5.8-0.6,10.9,1,15.1,5c3.9,3.7,5.8,8.3,6.2,13.6c0.3,4.4-0.5,8.5-2.7,12.3c-3,5.2-7.5,8.3-13.4,9.3
				c-4.7,0.8-9.1-0.2-13.1-2.5c-3.2-1.9-6.4-3.9-9.5-6c-7-4.7-14.3-8.8-22.4-11.4C110.3,251.4,110.2,251.3,110.1,251.3z"/>
			<circle class="st6" cx="153.4" cy="251.3" r="9"/>
		</g>
		<g>
			<path class="st5" d="M94.1,269c-1.2,1.4-2.3,2.9-3.5,4.3c-4.1,4.8-8.8,8.9-13.7,12.7c-3.2,2.5-6.5,5.1-9.6,7.7
				c-2.2,1.9-4,4.1-5.2,6.7c-2.4,5.3-2.6,10.6-0.2,15.9c2.2,4.9,6,8.2,10.9,10.2c4,1.7,8.2,2.3,12.5,1.4c5.9-1.2,10.3-4.4,13.1-9.7
				c2.2-4.2,2.8-8.6,1.9-13.2c-0.7-3.7-1.6-7.3-2.6-10.9c-2.2-8.1-3.7-16.4-3.5-24.8C94.1,269.2,94.1,269.1,94.1,269z"/>
			<circle class="st6" cx="80.1" cy="309.9" r="9"/>
		</g>
		<g>
			<path class="st7" d="M90.7,265.9c-1.7,0.8-3.3,1.6-5,2.3c-5.8,2.5-11.8,4.1-17.9,5.4c-4,0.8-8.1,1.7-12,2.7
				c-2.8,0.7-5.4,1.9-7.6,3.8c-4.5,3.7-7,8.4-7.2,14.2c-0.2,5.4,1.8,10,5.3,14c2.9,3.3,6.4,5.6,10.6,6.8c5.8,1.5,11.2,0.6,16.1-2.9
				c3.9-2.8,6.3-6.5,7.5-11.1c1-3.6,1.8-7.3,2.5-11c1.6-8.3,3.9-16.3,7.8-23.8C90.6,266.1,90.6,266,90.7,265.9z"/>
			<circle class="st6" cx="60" cy="296.5" r="9"/>
		</g>
		<g>
			<path class="st5" d="M88.9,259.2c-1.9-0.1-3.7-0.2-5.5-0.3c-6.3-0.5-12.3-2-18.3-3.7c-4-1.2-7.9-2.3-11.9-3.3
				c-2.8-0.7-5.7-0.9-8.5-0.3c-5.7,1.1-10.1,4.1-13,9.2c-2.7,4.6-3.1,9.6-1.9,14.8c1,4.2,2.9,8,6.1,11c4.4,4.1,9.6,5.8,15.6,5
				c4.7-0.6,8.6-2.8,11.8-6.2c2.6-2.7,5-5.6,7.4-8.5c5.3-6.5,11.1-12.5,18.1-17.4C88.7,259.4,88.8,259.3,88.9,259.2z"/>
			<circle class="st6" cx="47.4" cy="271.8" r="9"/>
		</g>
		<g>
			<path class="st7" d="M88.5,251.3c-1.7-0.7-3.5-1.3-5.2-1.9c-5.8-2.3-11.2-5.4-16.5-8.9c-3.4-2.3-6.9-4.5-10.4-6.6
				c-2.5-1.5-5.2-2.5-8.1-2.8c-5.8-0.6-10.9,1-15.1,5c-3.9,3.7-5.8,8.3-6.2,13.6c-0.3,4.4,0.5,8.5,2.7,12.3c3,5.2,7.5,8.3,13.4,9.3
				c4.7,0.8,9.1-0.2,13.1-2.5c3.2-1.9,6.4-3.9,9.5-6c7-4.7,14.3-8.8,22.4-11.4C88.3,251.4,88.4,251.3,88.5,251.3z"/>
			<circle class="st6" cx="45.2" cy="251.3" r="9"/>
		</g>
		<g>
			<path class="st7" d="M99.2,271.5c0.7,1.7,1.3,3.5,1.9,5.2c2.3,5.8,5.4,11.2,8.9,16.5c2.3,3.4,4.5,6.9,6.6,10.4
				c1.5,2.5,2.5,5.2,2.8,8.1c0.6,5.8-1,10.9-5,15.1c-3.7,3.9-8.3,5.8-13.6,6.2c-4.4,0.3-8.5-0.5-12.3-2.7c-5.2-3-8.3-7.5-9.3-13.4
				c-0.8-4.7,0.2-9.1,2.5-13.1c1.9-3.2,3.9-6.4,6-9.5c4.7-7,8.8-14.3,11.4-22.4C99.1,271.7,99.2,271.6,99.2,271.5z"/>
			<circle class="st6" cx="99.2" cy="314.8" r="9"/>
		</g>
	</g>
	<g>
		<g>
			<rect x="344" y="217.8" class="st8" width="7" height="128"/>
			<path class="st9" d="M366.2,251.5h-10c-4.4,0-8-3.6-8-8v-17.7c0-4.4,3.6-8,8-8h10c4.4,0,8,3.6,8,8v17.7
				C374.2,247.9,370.6,251.5,366.2,251.5z"/>
			<ellipse class="st8" cx="361.2" cy="234.6" rx="4.9" ry="8.4"/>
			<path class="st9" d="M366.2,283.1h-10c-4.4,0-8-3.6-8-8v-17.7c0-4.4,3.6-8,8-8h10c4.4,0,8,3.6,8,8v17.7
				C374.2,279.5,370.6,283.1,366.2,283.1z"/>
			<ellipse class="st8" cx="361.2" cy="266.2" rx="4.9" ry="8.4"/>
			<path class="st9" d="M366.2,314.6h-10c-4.4,0-8-3.6-8-8V289c0-4.4,3.6-8,8-8h10c4.4,0,8,3.6,8,8v17.7
				C374.2,311,370.6,314.6,366.2,314.6z"/>
			<ellipse class="st8" cx="361.2" cy="297.8" rx="4.9" ry="8.4"/>
			<path class="st9" d="M366.2,346.2h-10c-4.4,0-8-3.6-8-8v-17.7c0-4.4,3.6-8,8-8h10c4.4,0,8,3.6,8,8v17.7
				C374.2,342.6,370.6,346.2,366.2,346.2z"/>
			<ellipse class="st8" cx="361.2" cy="329.4" rx="4.9" ry="8.4"/>
		</g>
		<g>
			
				<rect x="415.5" y="217.8" transform="matrix(-1 -4.494728e-11 4.494728e-11 -1 838.0104 563.6212)" class="st8" width="7" height="128"/>
			<path class="st9" d="M400.3,251.5h10c4.4,0,8-3.6,8-8v-17.7c0-4.4-3.6-8-8-8h-10c-4.4,0-8,3.6-8,8v17.7
				C392.3,247.9,395.9,251.5,400.3,251.5z"/>
			<ellipse class="st8" cx="405.3" cy="234.6" rx="4.9" ry="8.4"/>
			<path class="st9" d="M400.3,283.1h10c4.4,0,8-3.6,8-8v-17.7c0-4.4-3.6-8-8-8h-10c-4.4,0-8,3.6-8,8v17.7
				C392.3,279.5,395.9,283.1,400.3,283.1z"/>
			<ellipse class="st8" cx="405.3" cy="266.2" rx="4.9" ry="8.4"/>
			<path class="st9" d="M400.3,314.6h10c4.4,0,8-3.6,8-8V289c0-4.4-3.6-8-8-8h-10c-4.4,0-8,3.6-8,8v17.7
				C392.3,311,395.9,314.6,400.3,314.6z"/>
			<ellipse class="st8" cx="405.3" cy="297.8" rx="4.9" ry="8.4"/>
			<path class="st9" d="M400.3,346.2h10c4.4,0,8-3.6,8-8v-17.7c0-4.4-3.6-8-8-8h-10c-4.4,0-8,3.6-8,8v17.7
				C392.3,342.6,395.9,346.2,400.3,346.2z"/>
			<ellipse class="st8" cx="405.3" cy="329.4" rx="4.9" ry="8.4"/>
		</g>
	</g>
	<g>
		<g>
			<g>
				<rect x="611.8" y="205.4" class="st8" width="5.1" height="91.8"/>
				<path class="st9" d="M625.5,229.6h-2.6c-4.4,0-8-3.6-8-8v-8.1c0-4.4,3.6-8,8-8h2.6c4.4,0,8,3.6,8,8v8.1
					C633.5,226,629.9,229.6,625.5,229.6z"/>
				<ellipse class="st8" cx="624.2" cy="217.5" rx="3.5" ry="6"/>
				<path class="st9" d="M625.5,252.2h-2.6c-4.4,0-8-3.6-8-8v-8.1c0-4.4,3.6-8,8-8h2.6c4.4,0,8,3.6,8,8v8.1
					C633.5,248.6,629.9,252.2,625.5,252.2z"/>
				<ellipse class="st8" cx="624.2" cy="240.2" rx="3.5" ry="6"/>
				<path class="st9" d="M625.5,274.9h-2.6c-4.4,0-8-3.6-8-8v-8.1c0-4.4,3.6-8,8-8h2.6c4.4,0,8,3.6,8,8v8.1
					C633.5,271.3,629.9,274.9,625.5,274.9z"/>
				<ellipse class="st8" cx="624.2" cy="262.8" rx="3.5" ry="6"/>
				<path class="st9" d="M625.5,297.5h-2.6c-4.4,0-8-3.6-8-8v-8.1c0-4.4,3.6-8,8-8h2.6c4.4,0,8,3.6,8,8v8.1
					C633.5,293.9,629.9,297.5,625.5,297.5z"/>
				<ellipse class="st8" cx="624.2" cy="285.5" rx="3.5" ry="6"/>
			</g>
			<g>
				
					<rect x="663.1" y="205.4" transform="matrix(-1 -4.537982e-11 4.537982e-11 -1 1331.2827 502.6623)" class="st8" width="5.1" height="91.8"/>
				<path class="st9" d="M654.5,229.6h2.6c4.4,0,8-3.6,8-8v-8.1c0-4.4-3.6-8-8-8h-2.6c-4.4,0-8,3.6-8,8v8.1
					C646.5,226,650.1,229.6,654.5,229.6z"/>
				<ellipse class="st8" cx="655.8" cy="217.5" rx="3.5" ry="6"/>
				<path class="st9" d="M654.5,252.2h2.6c4.4,0,8-3.6,8-8v-8.1c0-4.4-3.6-8-8-8h-2.6c-4.4,0-8,3.6-8,8v8.1
					C646.5,248.6,650.1,252.2,654.5,252.2z"/>
				<ellipse class="st8" cx="655.8" cy="240.2" rx="3.5" ry="6"/>
				<path class="st9" d="M654.5,274.9h2.6c4.4,0,8-3.6,8-8v-8.1c0-4.4-3.6-8-8-8h-2.6c-4.4,0-8,3.6-8,8v8.1
					C646.5,271.3,650.1,274.9,654.5,274.9z"/>
				<ellipse class="st8" cx="655.8" cy="262.8" rx="3.5" ry="6"/>
				<path class="st9" d="M654.5,297.5h2.6c4.4,0,8-3.6,8-8v-8.1c0-4.4-3.6-8-8-8h-2.6c-4.4,0-8,3.6-8,8v8.1
					C646.5,293.9,650.1,297.5,654.5,297.5z"/>
				<ellipse class="st8" cx="655.8" cy="285.5" rx="3.5" ry="6"/>
			</g>
		</g>
		<g>
			<g>
				<path class="st5" d="M643.5,315c0.8,1,1.6,2,2.4,2.9c2.8,3.2,6,6,9.3,8.6c2.2,1.7,4.4,3.5,6.5,5.3c1.5,1.3,2.7,2.8,3.5,4.6
					c1.6,3.6,1.8,7.2,0.1,10.8c-1.5,3.3-4.1,5.6-7.4,7c-2.7,1.1-5.6,1.5-8.5,1c-4-0.8-7-3-8.9-6.6c-1.5-2.8-1.9-5.9-1.3-9
					c0.5-2.5,1.1-5,1.8-7.4c1.5-5.5,2.5-11.1,2.4-16.9C643.5,315.2,643.5,315.1,643.5,315z"/>
				<circle class="st6" cx="653.1" cy="342.9" r="6.1"/>
			</g>
			<g>
				<path class="st7" d="M645.9,313c1.2,0.5,2.3,1.1,3.4,1.6c3.9,1.7,8,2.8,12.2,3.7c2.7,0.6,5.5,1.2,8.2,1.9
					c1.9,0.5,3.7,1.3,5.2,2.6c3,2.5,4.8,5.7,4.9,9.7c0.1,3.6-1.2,6.8-3.6,9.5c-2,2.2-4.3,3.8-7.2,4.6c-3.9,1.1-7.6,0.4-10.9-2
					c-2.6-1.9-4.3-4.5-5.1-7.5c-0.7-2.5-1.2-5-1.7-7.5c-1.1-5.6-2.7-11.1-5.3-16.2C645.9,313.1,645.9,313,645.9,313z"/>
				<circle class="st6" cx="666.7" cy="333.8" r="6.1"/>
			</g>
			<g>
				<path class="st5" d="M647.1,308.4c1.3-0.1,2.5-0.1,3.8-0.2c4.3-0.4,8.4-1.3,12.5-2.5c2.7-0.8,5.4-1.6,8.1-2.2
					c1.9-0.5,3.8-0.6,5.8-0.2c3.9,0.8,6.9,2.8,8.9,6.2c1.8,3.2,2.1,6.6,1.3,10.1c-0.7,2.9-2,5.4-4.2,7.5c-3,2.8-6.5,3.9-10.6,3.4
					c-3.2-0.4-5.9-1.9-8-4.2c-1.7-1.9-3.4-3.8-5-5.8c-3.6-4.4-7.6-8.5-12.3-11.8C647.2,308.5,647.1,308.5,647.1,308.4z"/>
				<circle class="st6" cx="675.3" cy="317" r="6.1"/>
			</g>
			<g>
				<path class="st7" d="M647.3,303c1.2-0.4,2.4-0.9,3.5-1.3c4-1.6,7.6-3.7,11.2-6c2.3-1.5,4.7-3.1,7.1-4.5c1.7-1,3.5-1.7,5.5-1.9
					c3.9-0.4,7.4,0.7,10.3,3.4c2.6,2.5,3.9,5.7,4.2,9.3c0.2,3-0.3,5.8-1.8,8.4c-2,3.5-5.1,5.7-9.1,6.3c-3.2,0.5-6.2-0.1-8.9-1.7
					c-2.2-1.3-4.4-2.7-6.5-4.1c-4.8-3.2-9.7-6-15.2-7.7C647.5,303.1,647.4,303,647.3,303z"/>
				<circle class="st6" cx="676.8" cy="303" r="6.1"/>
			</g>
			<g>
				<path class="st5" d="M636.5,315c-0.8,1-1.6,2-2.4,2.9c-2.8,3.2-6,6-9.3,8.6c-2.2,1.7-4.4,3.5-6.5,5.3c-1.5,1.3-2.7,2.8-3.5,4.6
					c-1.6,3.6-1.8,7.2-0.1,10.8c1.5,3.3,4.1,5.6,7.4,7c2.7,1.1,5.6,1.5,8.5,1c4-0.8,7-3,8.9-6.6c1.5-2.8,1.9-5.9,1.3-9
					c-0.5-2.5-1.1-5-1.8-7.4c-1.5-5.5-2.5-11.1-2.4-16.9C636.5,315.2,636.5,315.1,636.5,315z"/>
				<circle class="st6" cx="626.9" cy="342.9" r="6.1"/>
			</g>
			<g>
				<path class="st7" d="M634.1,313c-1.2,0.5-2.3,1.1-3.4,1.6c-3.9,1.7-8,2.8-12.2,3.7c-2.7,0.6-5.5,1.2-8.2,1.9
					c-1.9,0.5-3.7,1.3-5.2,2.6c-3,2.5-4.8,5.7-4.9,9.7c-0.1,3.6,1.2,6.8,3.6,9.5c2,2.2,4.3,3.8,7.2,4.6c3.9,1.1,7.6,0.4,10.9-2
					c2.6-1.9,4.3-4.5,5.1-7.5c0.7-2.5,1.2-5,1.7-7.5c1.1-5.6,2.7-11.1,5.3-16.2C634.1,313.1,634.1,313,634.1,313z"/>
				<circle class="st6" cx="613.3" cy="333.8" r="6.1"/>
			</g>
			<g>
				<path class="st5" d="M632.9,308.4c-1.3-0.1-2.5-0.1-3.8-0.2c-4.3-0.4-8.4-1.3-12.5-2.5c-2.7-0.8-5.4-1.6-8.1-2.2
					c-1.9-0.5-3.8-0.6-5.8-0.2c-3.9,0.8-6.9,2.8-8.9,6.2c-1.8,3.2-2.1,6.6-1.3,10.1c0.7,2.9,2,5.4,4.2,7.5c3,2.8,6.5,3.9,10.6,3.4
					c3.2-0.4,5.9-1.9,8-4.2c1.7-1.9,3.4-3.8,5-5.8c3.6-4.4,7.6-8.5,12.3-11.8C632.8,308.5,632.9,308.5,632.9,308.4z"/>
				<circle class="st6" cx="604.7" cy="317" r="6.1"/>
			</g>
			<g>
				<path class="st7" d="M632.7,303c-1.2-0.4-2.4-0.9-3.5-1.3c-4-1.6-7.6-3.7-11.2-6c-2.3-1.5-4.7-3.1-7.1-4.5
					c-1.7-1-3.5-1.7-5.5-1.9c-3.9-0.4-7.4,0.7-10.3,3.4c-2.6,2.5-3.9,5.7-4.2,9.3c-0.2,3,0.3,5.8,1.8,8.4c2,3.5,5.1,5.7,9.1,6.3
					c3.2,0.5,6.2-0.1,8.9-1.7c2.2-1.3,4.4-2.7,6.5-4.1c4.8-3.2,9.7-6,15.2-7.7C632.5,303.1,632.6,303,632.7,303z"/>
				<circle class="st6" cx="603.2" cy="303" r="6.1"/>
			</g>
			<g>
				<path class="st7" d="M640,316.8c0.4,1.2,0.9,2.4,1.3,3.5c1.6,4,3.7,7.6,6,11.2c1.5,2.3,3.1,4.7,4.5,7.1c1,1.7,1.7,3.5,1.9,5.5
					c0.4,3.9-0.7,7.4-3.4,10.3c-2.5,2.6-5.7,3.9-9.3,4.2c-3,0.2-5.8-0.3-8.4-1.8c-3.5-2-5.7-5.1-6.3-9.1c-0.5-3.2,0.1-6.2,1.7-8.9
					c1.3-2.2,2.7-4.4,4.1-6.5c3.2-4.8,6-9.7,7.7-15.2C639.9,316.9,639.9,316.8,640,316.8z"/>
				<circle class="st6" cx="640" cy="346.2" r="6.1"/>
			</g>
		</g>
	</g>
</g>
</svg>
